<?xml version="1.0" standalone="no"?>
<!DOCTYPE svg PUBLIC "-//W3C//DTD SVG 20010904//EN"
 "http://www.w3.org/TR/2001/REC-SVG-20010904/DTD/svg10.dtd">
<svg version="1.0" xmlns="http://www.w3.org/2000/svg"
 width="901.000000pt" height="332.000000pt" viewBox="0 0 901.000000 332.000000"
 preserveAspectRatio="xMidYMid meet">

<g transform="translate(0.000000,332.000000) scale(0.100000,-0.100000)"
fill="#000000" stroke="none">
<path d="M0 1660 l0 -1660 4505 0 4505 0 0 1660 0 1660 -4505 0 -4505 0 0
-1660z m440 1575 c-25 -49 -25 -61 -1 -108 22 -44 13 -50 -12 -8 -23 39 -21
89 4 130 27 45 34 35 9 -14z m1351 -26 c10 -31 9 -43 -7 -75 -11 -21 -26 -40
-34 -42 -11 -4 -9 2 5 18 26 29 28 109 3 137 -25 27 -23 40 2 18 11 -10 25
-35 31 -56z m234 61 c-3 -5 -13 -10 -21 -10 -11 0 -14 -16 -14 -75 0 -69 2
-76 23 -85 21 -8 21 -9 -5 -9 l-28 -1 0 95 0 95 26 0 c14 0 23 -4 19 -10z
m2995 -85 c0 -92 -1 -95 -22 -95 -21 1 -21 2 -5 11 24 14 26 159 2 159 -8 0
-15 5 -15 10 0 6 9 10 20 10 19 0 20 -7 20 -95z m-2731 78 c-1 -16 -88 -178
-88 -165 -1 19 71 172 80 172 5 0 9 -3 8 -7z m960 0 c-1 -16 -88 -178 -88
-165 -1 19 71 172 80 172 5 0 9 -3 8 -7z m-549 -78 c0 -43 -4 -75 -10 -75 -6
0 -10 32 -10 75 0 43 4 75 10 75 6 0 10 -32 10 -75z m1700 14 c0 -52 3 -62 20
-66 27 -7 25 -25 -2 -21 -21 3 -24 10 -28 67 -4 52 -9 66 -25 72 -17 7 -16 8
8 8 27 1 27 0 27 -60z m250 51 c0 -5 -4 -10 -10 -10 -5 0 -10 5 -10 10 0 6 5
10 10 10 6 0 10 -4 10 -10z m-2262 -16 c31 -21 31 -87 0 -108 -12 -9 -33 -16
-45 -16 -22 0 -23 4 -23 70 0 66 1 70 23 70 12 0 33 -7 45 -16z m939 -41 l21
-58 1 58 c1 31 6 57 11 57 6 0 10 -30 10 -71 0 -59 -3 -70 -16 -67 -9 2 -26
28 -38 58 l-21 55 -6 -60 -6 -60 -1 73 c-2 90 14 96 45 15z m819 30 c13 -65
21 -70 28 -20 5 29 12 47 21 47 10 0 14 -19 17 -70 2 -39 0 -70 -4 -70 -5 0
-8 15 -8 33 0 47 -16 66 -23 28 -9 -42 -23 -39 -35 7 l-10 37 -1 -47 c-1 -26
-5 -50 -11 -53 -11 -7 -14 117 -3 128 13 14 23 6 29 -20z m754 -29 c0 -42 4
-60 18 -70 15 -12 12 -13 -25 -14 -24 0 -43 5 -43 10 0 6 7 10 15 10 11 0 15
12 15 52 0 40 -3 49 -12 40 -14 -14 -28 -16 -28 -4 0 8 36 30 53 31 4 1 7 -24
7 -55z m-2060 36 c0 -5 10 -10 23 -11 l22 0 -22 -9 c-32 -13 -34 -80 -3 -80
11 0 20 -4 20 -10 0 -14 -33 -13 -48 2 -7 7 -12 29 -12 50 0 21 -5 38 -10 38
-6 0 -5 6 2 15 15 17 28 19 28 5z m1680 0 c0 -5 10 -10 23 -11 l22 0 -22 -9
c-32 -13 -34 -80 -3 -80 11 0 20 -4 20 -10 0 -14 -33 -13 -48 2 -7 7 -12 29
-12 50 0 21 -5 38 -10 38 -6 0 -5 6 2 15 15 17 28 19 28 5z m-2006 -26 c27
-27 20 -44 -20 -44 -43 0 -42 -22 2 -31 27 -5 28 -6 7 -13 -36 -12 -63 9 -63
49 0 49 42 71 74 39z m116 6 c11 -7 7 -10 -17 -10 -41 0 -43 -15 -3 -29 20 -6
30 -17 30 -30 0 -25 -40 -38 -67 -22 -15 9 -13 10 15 11 38 0 42 17 8 30 -32
12 -41 28 -26 45 14 17 38 19 60 5z m120 -15 c-21 -22 -22 -26 -8 -42 23 -27
30 -43 19 -43 -5 0 -19 14 -31 31 l-22 30 23 25 c12 13 27 24 32 24 6 0 0 -11
-13 -25z m244 9 c21 -20 20 -53 -1 -76 -32 -36 -73 -16 -73 37 0 51 41 73 74
39z m126 -4 c24 -38 -4 -97 -41 -87 -15 4 -19 0 -19 -19 0 -13 -4 -24 -10 -24
-6 0 -10 31 -10 74 l0 73 35 -1 c20 -1 40 -8 45 -16z m354 4 c27 -27 20 -44
-20 -44 -43 0 -42 -22 2 -31 27 -5 28 -6 7 -13 -36 -12 -63 9 -63 49 0 49 42
71 74 39z m116 6 c11 -7 7 -10 -17 -10 -41 0 -43 -15 -3 -29 20 -6 30 -17 30
-30 0 -25 -40 -38 -67 -22 -15 9 -13 10 15 11 38 0 42 17 8 30 -32 12 -41 28
-26 45 14 17 38 19 60 5z m120 0 c11 -7 7 -10 -17 -10 -41 0 -43 -15 -3 -29
20 -6 30 -17 30 -30 0 -25 -40 -38 -67 -22 -15 9 -13 10 15 11 38 0 42 17 8
30 -32 12 -41 28 -26 45 14 17 38 19 60 5z m70 -35 c0 -38 3 -45 20 -45 17 0
20 7 20 45 0 25 5 45 10 45 6 0 10 -24 10 -52 l0 -53 -38 0 -37 0 -3 53 c-2
31 1 52 7 52 6 0 11 -20 11 -45z m170 35 c11 -7 7 -10 -17 -10 -41 0 -43 -15
-3 -29 20 -6 30 -17 30 -30 0 -25 -40 -38 -67 -22 -15 9 -13 10 15 11 38 0 42
17 8 30 -32 12 -41 28 -26 45 14 17 38 19 60 5z m310 -35 c0 -38 3 -45 20 -45
17 0 20 7 20 45 0 25 5 45 10 45 6 0 10 -24 10 -52 l0 -53 -38 0 -37 0 -3 53
c-2 31 1 52 7 52 6 0 11 -20 11 -45z m400 -4 c0 -30 5 -51 13 -54 6 -3 -8 -5
-33 -6 -37 0 -41 2 -22 9 28 12 32 73 5 89 -15 9 -14 10 10 11 26 0 27 -2 27
-49z m-2512 15 c26 -1 29 -11 6 -20 -9 -4 -22 -1 -30 5 -7 6 -23 8 -36 3 -21
-6 -21 -5 -9 10 9 10 20 14 30 10 9 -4 26 -8 39 -8z m-1910 -3 l-148 -4 0
-124 0 -124 88 -4 87 -3 -92 -2 -92 -2 -3 63 c-2 34 -2 95 0 135 l4 72 151 -2
152 -2 -147 -3z m1682 -13 c0 -5 -18 -10 -40 -10 -22 0 -40 5 -40 10 0 6 18
10 40 10 22 0 40 -4 40 -10z m2160 0 c0 -5 -18 -10 -40 -10 -22 0 -40 5 -40
10 0 6 18 10 40 10 22 0 40 -4 40 -10z m720 0 c0 -5 -18 -10 -40 -10 -22 0
-40 5 -40 10 0 6 18 10 40 10 22 0 40 -4 40 -10z m-4258 -240 c2 -49 -1 -71
-9 -75 -10 -3 -13 15 -13 70 0 95 17 99 22 5z m358 -5 c0 -43 -4 -75 -10 -75
-6 0 -10 32 -10 75 0 43 4 75 10 75 6 0 10 -32 10 -75z m1340 14 c0 -52 3 -62
20 -66 27 -7 25 -25 -2 -21 -21 3 -24 10 -28 67 -4 52 -9 66 -25 72 -17 7 -16
8 8 8 27 1 27 0 27 -60z m250 51 c0 -5 -4 -10 -10 -10 -5 0 -10 5 -10 10 0 6
5 10 10 10 6 0 10 -4 10 -10z m570 -14 c0 -21 5 -24 28 -23 26 2 27 0 30 -50
2 -32 -1 -53 -7 -53 -6 0 -11 20 -11 46 0 38 -3 45 -17 42 -13 -2 -19 -15 -21
-46 -5 -71 -22 -46 -22 33 0 43 4 75 10 75 6 0 10 -11 10 -24z m-1893 -43 l21
-58 1 58 c1 31 6 57 11 57 6 0 10 -30 10 -71 0 -59 -3 -70 -16 -67 -9 2 -26
28 -38 58 l-21 55 -6 -60 -6 -60 -1 73 c-2 90 14 96 45 15z m819 30 c13 -65
21 -70 28 -20 5 29 12 47 21 47 10 0 14 -19 17 -70 2 -39 0 -70 -4 -70 -5 0
-8 15 -8 33 0 47 -16 66 -23 28 -9 -42 -23 -39 -35 7 l-10 37 -1 -47 c-1 -26
-5 -50 -11 -53 -11 -7 -14 117 -3 128 13 14 23 6 29 -20z m754 -29 c0 -42 4
-60 18 -70 15 -12 12 -13 -25 -14 -24 0 -43 5 -43 10 0 6 7 10 15 10 11 0 15
12 15 52 0 40 -3 49 -12 40 -14 -14 -28 -16 -28 -4 0 8 36 30 53 31 4 1 7 -24
7 -55z m-380 36 c0 -5 10 -10 23 -11 l22 0 -22 -9 c-32 -13 -34 -80 -3 -80 11
0 20 -4 20 -10 0 -14 -33 -13 -48 2 -7 7 -12 29 -12 50 0 21 -5 38 -10 38 -6
0 -5 6 2 15 15 17 28 19 28 5z m-1766 -26 c9 -8 16 -23 16 -32 0 -22 -27 -62
-42 -62 -6 0 -4 8 5 18 10 10 17 28 17 39 0 23 -23 46 -35 35 -5 -4 -5 -1 -1
6 10 16 21 15 40 -4z m107 6 c14 -8 19 -21 19 -52 0 -23 -3 -38 -6 -35 -4 3
-15 2 -25 -3 -26 -14 -49 -2 -49 26 0 19 7 26 30 31 17 3 30 9 30 13 0 12 -30
21 -42 13 -7 -3 -8 -1 -4 5 9 15 22 15 47 2z m129 0 c11 -7 8 -9 -14 -7 -39 3
-44 -18 -6 -31 36 -13 39 -38 6 -53 -17 -8 -29 -8 -42 0 -17 10 -15 11 11 9
21 -2 30 2 33 15 2 9 -2 17 -10 17 -8 0 -23 7 -34 15 -19 15 -19 15 0 30 23
17 35 18 56 5z m128 -54 c-1 -47 -2 -48 -5 -11 -3 22 -9 44 -14 50 -14 14 -11
25 6 19 11 -5 15 -20 13 -58z m356 48 c27 -27 20 -44 -20 -44 -43 0 -42 -22 2
-31 27 -5 28 -6 7 -13 -36 -12 -63 9 -63 49 0 49 42 71 74 39z m116 6 c11 -7
7 -10 -17 -10 -41 0 -43 -15 -3 -29 20 -6 30 -17 30 -30 0 -25 -40 -38 -67
-22 -15 9 -13 10 15 11 38 0 42 17 8 30 -32 12 -41 28 -26 45 14 17 38 19 60
5z m120 0 c11 -7 7 -10 -17 -10 -41 0 -43 -15 -3 -29 20 -6 30 -17 30 -30 0
-25 -40 -38 -67 -22 -15 9 -13 10 15 11 38 0 42 17 8 30 -32 12 -41 28 -26 45
14 17 38 19 60 5z m70 -35 c0 -38 3 -45 20 -45 17 0 20 7 20 45 0 25 5 45 10
45 6 0 10 -24 10 -52 0 -52 0 -53 -30 -52 -16 1 -34 2 -40 3 -5 0 -10 24 -10
51 0 28 5 50 10 50 6 0 10 -20 10 -45z m170 35 c11 -7 7 -10 -17 -10 -41 0
-43 -15 -3 -29 20 -6 30 -17 30 -30 0 -25 -40 -38 -67 -22 -15 9 -13 10 15 11
38 0 42 17 8 30 -32 12 -41 28 -26 45 14 17 38 19 60 5z m310 -35 c0 -38 3
-45 20 -45 17 0 20 7 20 45 0 25 5 45 10 45 6 0 10 -24 10 -52 l0 -53 -38 0
-37 0 -3 53 c-2 31 1 52 7 52 6 0 11 -20 11 -45z m400 -4 c0 -30 5 -51 13 -54
6 -3 -8 -5 -33 -6 -37 0 -41 2 -22 9 28 12 32 73 5 89 -15 9 -14 10 10 11 26
0 27 -2 27 -49z m490 39 c11 -7 7 -10 -17 -10 -41 0 -43 -15 -3 -29 20 -6 30
-17 30 -30 0 -25 -40 -38 -67 -22 -15 9 -13 10 15 11 38 0 42 17 8 30 -32 12
-41 28 -26 45 14 17 38 19 60 5z m-350 -40 c0 -5 -18 -10 -40 -10 -22 0 -40 5
-40 10 0 6 18 10 40 10 22 0 40 -4 40 -10z m216 -31 c8 -14 -11 -33 -25 -25
-11 7 -4 36 9 36 5 0 12 -5 16 -11z m-926 -59 c0 -5 -22 -10 -50 -10 -27 0
-50 5 -50 10 0 6 23 10 50 10 28 0 50 -4 50 -10z m-1820 -70 c0 -5 -9 -10 -20
-10 -18 0 -20 -7 -20 -75 0 -68 2 -75 20 -75 11 0 20 -4 20 -10 0 -5 -11 -10
-25 -10 -25 0 -25 0 -25 95 0 95 0 95 25 95 14 0 25 -4 25 -10z m240 -85 l0
-95 -31 0 c-17 0 -28 4 -24 10 3 6 13 10 21 10 11 0 14 16 14 75 0 59 -3 75
-14 75 -8 0 -18 5 -21 10 -4 6 7 10 24 10 l31 0 0 -95z m5136 61 c-21 -32 -21
-100 0 -131 9 -14 12 -25 6 -25 -19 0 -42 50 -42 93 0 30 7 53 21 71 26 33 38
26 15 -8z m2781 -19 c17 -33 12 -80 -13 -115 -24 -35 -36 -26 -14 11 25 41 25
73 0 115 -11 18 -20 35 -20 38 0 13 32 -21 47 -49z m-8057 23 c0 -5 -4 -10
-10 -10 -5 0 -10 5 -10 10 0 6 5 10 10 10 6 0 10 -4 10 -10z m630 -63 l0 -73
-27 2 c-48 2 -51 3 -57 30 -9 35 18 78 45 71 15 -4 19 0 19 19 0 13 5 24 10
24 6 0 10 -31 10 -73z m330 63 c0 -5 -4 -10 -10 -10 -5 0 -10 5 -10 10 0 6 5
10 10 10 6 0 10 -4 10 -10z m750 -63 l0 -73 -27 2 c-48 2 -51 3 -57 30 -9 35
18 78 45 71 15 -4 19 0 19 19 0 13 5 24 10 24 6 0 10 -31 10 -73z m210 63 c0
-5 -4 -10 -10 -10 -5 0 -10 5 -10 10 0 6 5 10 10 10 6 0 10 -4 10 -10z m590
-51 c0 -52 3 -62 20 -66 27 -7 25 -25 -2 -21 -21 3 -24 10 -28 67 -4 52 -9 66
-25 72 -17 7 -16 8 8 8 27 1 27 0 27 -60z m120 0 c0 -52 3 -62 20 -66 27 -7
25 -25 -2 -21 -21 3 -24 10 -28 67 -4 52 -9 66 -25 72 -17 7 -16 8 8 8 27 1
27 0 27 -60z m130 51 c0 -5 -4 -10 -10 -10 -5 0 -10 5 -10 10 0 6 5 10 10 10
6 0 10 -4 10 -10z m570 -14 c0 -21 5 -24 28 -23 26 2 27 0 30 -50 2 -32 -1
-53 -7 -53 -6 0 -11 20 -11 46 0 38 -3 45 -17 42 -13 -2 -19 -15 -21 -46 -5
-71 -22 -46 -22 33 0 43 4 75 10 75 6 0 10 -11 10 -24z m420 -49 l0 -73 -27 2
c-48 2 -51 3 -57 30 -9 35 18 78 45 71 15 -4 19 0 19 19 0 13 5 24 10 24 6 0
10 -31 10 -73z m600 0 l0 -73 -27 2 c-48 2 -51 3 -57 30 -9 35 18 78 45 71 15
-4 19 0 19 19 0 13 5 24 10 24 6 0 10 -31 10 -73z m450 63 c0 -5 -4 -10 -10
-10 -5 0 -10 5 -10 10 0 6 5 10 10 10 6 0 10 -4 10 -10z m690 -14 c0 -21 5
-24 28 -23 26 2 27 0 30 -50 2 -32 -1 -53 -7 -53 -6 0 -11 20 -11 46 0 38 -3
45 -17 42 -13 -2 -19 -15 -21 -46 -5 -71 -22 -46 -22 33 0 43 4 75 10 75 6 0
10 -11 10 -24z m150 14 c0 -5 -4 -10 -10 -10 -5 0 -10 5 -10 10 0 6 5 10 10
10 6 0 10 -4 10 -10z m480 0 c0 -5 -4 -10 -10 -10 -5 0 -10 5 -10 10 0 6 5 10
10 10 6 0 10 -4 10 -10z m110 -51 c0 -52 3 -62 20 -66 27 -7 25 -25 -2 -21
-21 3 -24 10 -28 67 -4 52 -9 66 -25 72 -17 7 -16 8 8 8 27 1 27 0 27 -60z
m120 0 c0 -52 3 -62 20 -66 27 -7 25 -25 -2 -21 -21 3 -24 10 -28 67 -4 52 -9
66 -25 72 -17 7 -16 8 8 8 27 1 27 0 27 -60z m460 -14 c0 -43 -4 -75 -10 -75
-6 0 -10 32 -10 75 0 43 4 75 10 75 6 0 10 -32 10 -75z m720 51 c0 -21 5 -24
28 -23 26 2 27 0 30 -50 2 -32 -1 -53 -7 -53 -6 0 -11 20 -11 46 0 38 -3 45
-17 42 -13 -2 -19 -15 -21 -46 -5 -71 -22 -46 -22 33 0 43 4 75 10 75 6 0 10
-11 10 -24z m150 14 c0 -5 -4 -10 -10 -10 -5 0 -10 5 -10 10 0 6 5 10 10 10 6
0 10 -4 10 -10z m110 -51 c0 -52 3 -62 20 -66 27 -7 25 -25 -2 -21 -21 3 -24
10 -28 67 -4 52 -9 66 -25 72 -17 7 -16 8 8 8 27 1 27 0 27 -60z m-7470 4 c0
-56 10 -76 36 -71 16 3 20 14 22 61 4 73 22 75 22 3 0 -61 -18 -89 -53 -84
-12 2 -27 14 -34 28 -15 30 -17 110 -3 110 6 0 10 -21 10 -47z m510 27 c0 -5
10 -11 23 -11 l22 -2 -22 -4 c-19 -4 -23 -11 -23 -44 0 -32 3 -39 20 -39 11 0
20 -4 20 -10 0 -14 -33 -13 -48 2 -7 7 -12 29 -12 50 0 21 -5 38 -10 38 -6 0
-5 6 2 15 15 17 28 19 28 5z m1440 0 c0 -5 10 -10 23 -11 l22 0 -22 -9 c-32
-13 -34 -80 -3 -80 11 0 20 -4 20 -10 0 -14 -33 -13 -48 2 -7 7 -12 29 -12 50
0 21 -5 38 -10 38 -6 0 -5 6 2 15 15 17 28 19 28 5z m960 0 c0 -5 10 -10 23
-11 l22 0 -22 -9 c-32 -13 -34 -80 -3 -80 11 0 20 -4 20 -10 0 -14 -33 -13
-48 2 -7 7 -12 29 -12 50 0 21 -5 38 -10 38 -6 0 -5 6 2 15 15 17 28 19 28 5z
m2160 0 c0 -5 10 -10 23 -11 l22 0 -22 -9 c-32 -13 -34 -80 -3 -80 11 0 20 -4
20 -10 0 -14 -33 -13 -48 2 -7 7 -12 29 -12 50 0 21 -5 38 -10 38 -6 0 -5 6 2
15 15 17 28 19 28 5z m1200 0 c0 -5 10 -10 23 -11 l22 0 -22 -9 c-32 -13 -34
-80 -3 -80 11 0 20 -4 20 -10 0 -14 -33 -13 -48 2 -7 7 -12 29 -12 50 0 21 -5
38 -10 38 -6 0 -5 6 2 15 15 17 28 19 28 5z m-5355 -18 c-6 -4 -10 -18 -10
-32 0 -20 -6 -26 -27 -28 -39 -5 -35 -18 7 -26 25 -5 35 -12 35 -25 0 -32 -67
-44 -90 -16 -14 17 -7 19 20 5 20 -11 50 -4 50 11 0 5 -10 9 -22 9 -34 0 -43
11 -45 51 -3 42 9 56 52 61 34 4 44 0 30 -10z m1800 0 c-6 -4 -10 -18 -10 -32
0 -20 -6 -26 -27 -28 -39 -5 -35 -18 7 -26 25 -5 35 -12 35 -25 0 -32 -67 -44
-90 -16 -14 17 -7 19 20 5 19 -10 50 -4 50 10 0 5 -14 10 -32 12 -30 3 -32 6
-35 44 -3 47 8 61 52 66 34 4 44 0 30 -10z m-3025 -41 c0 -30 5 -51 13 -54 6
-3 -8 -5 -33 -6 -37 0 -41 2 -22 9 28 12 32 73 5 89 -15 9 -14 10 10 11 26 0
27 -2 27 -49z m500 29 c24 -38 -4 -97 -41 -87 -15 4 -19 0 -19 -19 0 -13 -4
-24 -10 -24 -6 0 -10 31 -10 74 l0 73 35 -1 c20 -1 40 -8 45 -16z m228 8 c7
-7 12 -30 12 -52 0 -40 -1 -41 -35 -43 -25 -1 -38 4 -45 17 -12 22 11 50 41
50 10 0 19 5 19 10 0 6 -12 10 -26 10 -14 0 -23 4 -19 10 8 14 38 13 53 -2z
m232 -37 c0 -30 5 -51 13 -54 6 -3 -8 -5 -33 -6 -37 0 -41 2 -22 9 28 12 32
73 5 89 -15 9 -14 10 10 11 26 0 27 -2 27 -49z m138 -8 c2 -32 -1 -53 -7 -53
-6 0 -11 20 -11 46 0 38 -3 45 -17 42 -13 -2 -19 -15 -21 -46 -5 -61 -22 -52
-22 12 l0 53 38 -1 37 -1 3 -52z m350 45 c7 -7 12 -30 12 -52 0 -40 -1 -41
-35 -43 -25 -1 -38 4 -45 17 -12 22 11 50 41 50 10 0 19 5 19 10 0 6 -12 10
-26 10 -14 0 -23 4 -19 10 8 14 38 13 53 -2z m130 -45 c2 -32 -1 -53 -7 -53
-6 0 -11 20 -11 46 0 38 -3 45 -17 42 -13 -2 -19 -15 -21 -46 -5 -61 -22 -52
-22 12 l0 53 38 -1 37 -1 3 -52z m342 8 c0 -30 5 -51 13 -54 6 -3 -8 -5 -33
-6 -37 0 -41 2 -22 9 28 12 32 73 5 89 -15 9 -14 10 10 11 26 0 27 -2 27 -49z
m138 -8 c2 -32 -1 -53 -7 -53 -6 0 -11 20 -11 46 0 38 -3 45 -17 42 -13 -2
-19 -15 -21 -46 -5 -61 -22 -52 -22 12 l0 53 38 -1 37 -1 3 -52z m112 47 c11
-7 7 -10 -17 -10 -41 0 -43 -15 -3 -29 20 -6 30 -17 30 -30 0 -25 -40 -38 -67
-22 -15 9 -13 10 15 11 38 0 42 17 8 30 -32 12 -41 28 -26 45 14 17 38 19 60
5z m238 -2 c7 -7 12 -30 12 -52 0 -40 -1 -41 -35 -43 -25 -1 -38 4 -45 17 -12
22 11 50 41 50 10 0 19 5 19 10 0 6 -12 10 -26 10 -14 0 -23 4 -19 10 8 14 38
13 53 -2z m352 -37 c0 -30 5 -51 13 -54 6 -3 -8 -5 -33 -6 -37 0 -41 2 -22 9
28 12 32 73 5 89 -15 9 -14 10 10 11 26 0 27 -2 27 -49z m138 -8 c2 -32 -1
-53 -7 -53 -6 0 -11 20 -11 46 0 38 -3 45 -17 42 -13 -2 -19 -15 -21 -46 -5
-61 -22 -52 -22 12 l0 53 38 -1 37 -1 3 -52z m596 41 c27 -27 20 -44 -20 -44
-43 0 -42 -22 2 -31 27 -5 28 -6 7 -13 -36 -12 -63 9 -63 49 0 49 42 71 74 39z
m360 0 c27 -27 20 -44 -20 -44 -43 0 -42 -22 2 -31 27 -5 28 -6 7 -13 -36 -12
-63 9 -63 49 0 49 42 71 74 39z m126 -4 c24 -38 -4 -97 -41 -87 -15 4 -19 0
-19 -19 0 -13 -4 -24 -10 -24 -6 0 -10 31 -10 74 l0 73 35 -1 c20 -1 40 -8 45
-16z m114 4 c27 -27 20 -44 -20 -44 -43 0 -42 -22 2 -31 27 -5 28 -6 7 -13
-36 -12 -63 9 -63 49 0 49 42 71 74 39z m124 -41 c2 -32 -1 -53 -7 -53 -6 0
-11 20 -11 46 0 38 -3 45 -17 42 -13 -2 -19 -15 -21 -46 -5 -61 -22 -52 -22
12 l0 53 38 -1 37 -1 3 -52z m236 41 c27 -27 20 -44 -20 -44 -43 0 -42 -22 2
-31 27 -5 28 -6 7 -13 -36 -12 -63 9 -63 49 0 49 42 71 74 39z m124 -41 c2
-32 -1 -53 -7 -53 -6 0 -11 20 -11 46 0 38 -3 45 -17 42 -13 -2 -19 -15 -21
-46 -5 -61 -22 -52 -22 12 l0 53 38 -1 37 -1 3 -52z m117 48 c3 -5 -7 -11 -22
-13 -24 -3 -28 -8 -28 -33 0 -25 4 -30 28 -33 30 -4 28 -22 -3 -22 -25 0 -50
26 -50 52 0 40 57 77 75 49z m105 -40 c0 -30 5 -51 13 -54 6 -3 -8 -5 -33 -6
-37 0 -41 2 -22 9 28 12 32 73 5 89 -15 9 -14 10 10 11 26 0 27 -2 27 -49z
m134 33 c27 -27 20 -44 -20 -44 -43 0 -42 -22 2 -31 27 -5 28 -6 7 -13 -36
-12 -63 9 -63 49 0 49 42 71 74 39z m116 6 c11 -7 7 -10 -17 -10 -41 0 -43
-15 -3 -29 20 -6 30 -17 30 -30 0 -25 -40 -38 -67 -22 -15 9 -13 10 15 11 38
0 42 17 8 30 -32 12 -41 28 -26 45 14 17 38 19 60 5z m590 -39 c0 -30 5 -51
13 -54 6 -3 -8 -5 -33 -6 -37 0 -41 2 -22 9 28 12 32 73 5 89 -15 9 -14 10 10
11 26 0 27 -2 27 -49z m130 39 c11 -7 7 -10 -17 -10 -41 0 -43 -15 -3 -29 20
-6 30 -17 30 -30 0 -25 -40 -38 -67 -22 -15 9 -13 10 15 11 38 0 42 17 8 30
-32 12 -41 28 -26 45 14 17 38 19 60 5z m181 -50 l2 -35 10 38 c12 43 30 44
37 1 5 -24 7 -26 13 -11 4 10 7 30 7 43 0 13 5 24 11 24 6 0 8 -8 6 -17 -3
-10 -8 -35 -12 -56 -8 -47 -28 -44 -35 4 -4 27 -7 30 -13 16 -4 -10 -7 -27 -7
-38 0 -10 -6 -19 -14 -19 -13 0 -26 48 -26 95 0 36 20 -6 21 -45z m169 11 c0
-30 5 -51 13 -54 6 -3 -8 -5 -33 -6 -37 0 -41 2 -22 9 28 12 32 73 5 89 -15 9
-14 10 10 11 26 0 27 -2 27 -49z m608 37 c7 -7 12 -30 12 -52 0 -40 -1 -41
-35 -43 -25 -1 -38 4 -45 17 -12 22 11 50 41 50 10 0 19 5 19 10 0 6 -12 10
-26 10 -14 0 -23 4 -19 10 8 14 38 13 53 -2z m122 -13 c-21 -22 -22 -26 -8
-42 23 -27 30 -43 19 -43 -5 0 -19 14 -31 31 l-22 30 23 25 c12 13 27 24 32
24 6 0 0 -11 -13 -25z m124 9 c27 -27 20 -44 -20 -44 -43 0 -42 -22 2 -31 27
-5 28 -6 7 -13 -36 -12 -63 9 -63 49 0 49 42 71 74 39z m234 4 c7 -7 12 -30
12 -52 0 -40 -1 -41 -35 -43 -25 -1 -38 4 -45 17 -12 22 11 50 41 50 10 0 19
5 19 10 0 6 -12 10 -26 10 -14 0 -23 4 -19 10 8 14 38 13 53 -2z m183 -48 l2
-35 10 38 c12 43 30 44 37 1 5 -24 7 -26 13 -11 4 10 7 30 7 43 0 13 5 24 11
24 6 0 8 -8 6 -17 -3 -10 -8 -35 -12 -56 -8 -47 -28 -44 -35 4 -4 27 -7 30
-13 16 -4 -10 -7 -27 -7 -38 0 -10 -6 -19 -14 -19 -13 0 -26 48 -26 95 0 36
20 -6 21 -45z m289 11 c0 -30 5 -51 13 -54 6 -3 -8 -5 -33 -6 -37 0 -41 2 -22
9 28 12 32 73 5 89 -15 9 -14 10 10 11 26 0 27 -2 27 -49z m254 33 c27 -27 20
-44 -20 -44 -43 0 -42 -22 2 -31 27 -5 28 -6 7 -13 -36 -12 -63 9 -63 49 0 49
42 71 74 39z m-7064 -384 c0 -5 -22 -10 -50 -10 -27 0 -50 5 -50 10 0 6 23 10
50 10 28 0 50 -4 50 -10z m480 0 c0 -5 -22 -10 -50 -10 -27 0 -50 5 -50 10 0
6 23 10 50 10 28 0 50 -4 50 -10z m3960 0 c0 -6 -43 -10 -110 -10 -67 0 -110
4 -110 10 0 6 43 10 110 10 67 0 110 -4 110 -10z m480 0 c0 -6 -43 -10 -110
-10 -67 0 -110 4 -110 10 0 6 43 10 110 10 67 0 110 -4 110 -10z m960 0 c0 -5
-22 -10 -50 -10 -27 0 -50 5 -50 10 0 6 23 10 50 10 28 0 50 -4 50 -10z m240
0 c0 -5 -22 -10 -50 -10 -27 0 -50 5 -50 10 0 6 23 10 50 10 28 0 50 -4 50
-10z m480 0 c0 -5 -22 -10 -50 -10 -27 0 -50 5 -50 10 0 6 23 10 50 10 28 0
50 -4 50 -10z m960 0 c0 -5 -22 -10 -50 -10 -27 0 -50 5 -50 10 0 6 23 10 50
10 28 0 50 -4 50 -10z m-1124 -94 c-21 -32 -21 -100 0 -131 9 -14 12 -25 6
-25 -19 0 -42 50 -42 93 0 30 7 53 21 71 26 33 38 26 15 -8z m261 -19 c17 -33
12 -80 -13 -115 -24 -35 -36 -26 -14 11 25 41 25 73 0 115 -11 18 -20 35 -20
38 0 13 32 -21 47 -49z m-6857 -47 c0 -53 -4 -90 -10 -90 -6 0 -10 37 -10 90
0 53 4 90 10 90 6 0 10 -37 10 -90z m238 4 c24 -48 41 -89 38 -91 -3 -3 -25
36 -50 86 -26 50 -43 91 -38 91 4 0 27 -39 50 -86z m242 -4 c0 -53 -4 -90 -10
-90 -6 0 -10 37 -10 90 0 53 4 90 10 90 6 0 10 -37 10 -90z m240 0 c0 -53 -4
-90 -10 -90 -6 0 -10 37 -10 90 0 53 4 90 10 90 6 0 10 -37 10 -90z m3600 0
c0 -53 -4 -90 -10 -90 -6 0 -10 37 -10 90 0 53 4 90 10 90 6 0 10 -37 10 -90z
m840 0 c0 -53 -4 -90 -10 -90 -6 0 -10 37 -10 90 0 53 4 90 10 90 6 0 10 -37
10 -90z m720 0 c0 -53 -4 -90 -10 -90 -6 0 -10 37 -10 90 0 53 4 90 10 90 6 0
10 -37 10 -90z m240 0 c0 -53 -4 -90 -10 -90 -6 0 -10 37 -10 90 0 53 4 90 10
90 6 0 10 -37 10 -90z m240 0 c0 -53 -4 -90 -10 -90 -6 0 -10 37 -10 90 0 53
4 90 10 90 6 0 10 -37 10 -90z m1239 83 c-1 -16 -88 -178 -88 -165 -1 19 71
172 80 172 5 0 9 -3 8 -7z m201 -83 c0 -53 -4 -90 -10 -90 -6 0 -10 37 -10 90
0 53 4 90 10 90 6 0 10 -37 10 -90z m-3103 15 c15 -30 30 -55 33 -55 3 0 18
25 33 55 15 30 31 55 36 55 15 0 -52 -139 -66 -140 -7 0 -29 32 -48 70 -19 39
-31 70 -25 70 6 0 22 -25 37 -55z m-3457 -115 c0 -6 -63 -10 -170 -10 -107 0
-170 4 -170 10 0 6 63 10 170 10 107 0 170 -4 170 -10z m600 0 c0 -6 -63 -10
-170 -10 -107 0 -170 4 -170 10 0 6 63 10 170 10 107 0 170 -4 170 -10z m480
0 c0 -6 -63 -10 -170 -10 -107 0 -170 4 -170 10 0 6 63 10 170 10 107 0 170
-4 170 -10z m240 0 c0 -5 -22 -10 -50 -10 -27 0 -50 5 -50 10 0 6 23 10 50 10
28 0 50 -4 50 -10z m480 0 c0 -5 -22 -10 -50 -10 -27 0 -50 5 -50 10 0 6 23
10 50 10 28 0 50 -4 50 -10z m480 0 c0 -6 -63 -10 -170 -10 -107 0 -170 4
-170 10 0 6 63 10 170 10 107 0 170 -4 170 -10z m1800 0 c0 -5 -22 -10 -50
-10 -27 0 -50 5 -50 10 0 6 23 10 50 10 28 0 50 -4 50 -10z m480 0 c0 -5 -22
-10 -50 -10 -27 0 -50 5 -50 10 0 6 23 10 50 10 28 0 50 -4 50 -10z m720 0 c0
-5 -22 -10 -50 -10 -27 0 -50 5 -50 10 0 6 23 10 50 10 28 0 50 -4 50 -10z
m240 0 c0 -5 -22 -10 -50 -10 -27 0 -50 5 -50 10 0 6 23 10 50 10 28 0 50 -4
50 -10z m-6760 -160 c0 -53 -4 -90 -10 -90 -6 0 -10 37 -10 90 0 53 4 90 10
90 6 0 10 -37 10 -90z m358 4 c24 -48 41 -89 38 -91 -3 -3 -25 36 -50 86 -26
50 -43 91 -38 91 4 0 27 -39 50 -86z m122 -4 c0 -53 -4 -90 -10 -90 -6 0 -10
37 -10 90 0 53 4 90 10 90 6 0 10 -37 10 -90z m240 0 c0 -53 -4 -90 -10 -90
-6 0 -10 37 -10 90 0 53 4 90 10 90 6 0 10 -37 10 -90z m159 83 c-1 -16 -88
-178 -88 -165 -1 19 71 172 80 172 5 0 9 -3 8 -7z m1080 0 c-1 -16 -88 -178
-88 -165 -1 19 71 172 80 172 5 0 9 -3 8 -7z m441 -83 c0 -53 -4 -90 -10 -90
-6 0 -10 37 -10 90 0 53 4 90 10 90 6 0 10 -37 10 -90z m240 0 c0 -53 -4 -90
-10 -90 -6 0 -10 37 -10 90 0 53 4 90 10 90 6 0 10 -37 10 -90z m240 0 c0 -53
-4 -90 -10 -90 -6 0 -10 37 -10 90 0 53 4 90 10 90 6 0 10 -37 10 -90z m279
83 c0 -14 -88 -178 -89 -168 0 16 74 175 82 175 4 0 8 -3 7 -7z m1161 -83 c0
-53 -4 -90 -10 -90 -6 0 -10 37 -10 90 0 53 4 90 10 90 6 0 10 -37 10 -90z
m240 0 c0 -53 -4 -90 -10 -90 -6 0 -10 37 -10 90 0 53 4 90 10 90 6 0 10 -37
10 -90z m118 4 c24 -48 41 -89 38 -91 -3 -3 -25 36 -50 86 -26 50 -43 91 -38
91 4 0 27 -39 50 -86z m161 79 c-1 -16 -88 -178 -88 -165 -1 19 71 172 80 172
5 0 9 -3 8 -7z m81 -83 c0 -53 -4 -90 -10 -90 -6 0 -10 37 -10 90 0 53 4 90
10 90 6 0 10 -37 10 -90z m240 0 c0 -53 -4 -90 -10 -90 -6 0 -10 37 -10 90 0
53 4 90 10 90 6 0 10 -37 10 -90z m240 0 c0 -53 -4 -90 -10 -90 -6 0 -10 37
-10 90 0 53 4 90 10 90 6 0 10 -37 10 -90z m240 0 c0 -53 -4 -90 -10 -90 -6 0
-10 37 -10 90 0 53 4 90 10 90 6 0 10 -37 10 -90z m240 0 c0 -53 -4 -90 -10
-90 -6 0 -10 37 -10 90 0 53 4 90 10 90 6 0 10 -37 10 -90z m240 0 c0 -53 -4
-90 -10 -90 -6 0 -10 37 -10 90 0 53 4 90 10 90 6 0 10 -37 10 -90z m480 0 c0
-53 -4 -90 -10 -90 -6 0 -10 37 -10 90 0 53 4 90 10 90 6 0 10 -37 10 -90z
m240 0 c0 -53 -4 -90 -10 -90 -6 0 -10 37 -10 90 0 53 4 90 10 90 6 0 10 -37
10 -90z m720 0 c0 -53 -4 -90 -10 -90 -6 0 -10 37 -10 90 0 53 4 90 10 90 6 0
10 -37 10 -90z m240 0 c0 -53 -4 -90 -10 -90 -6 0 -10 37 -10 90 0 53 4 90 10
90 6 0 10 -37 10 -90z m-3880 -90 c207 0 320 -4 320 -10 0 -7 -163 -10 -470
-10 -307 0 -470 3 -470 10 0 6 53 10 140 10 l140 0 0 33 c0 17 4 57 8 87 7 54
7 53 10 -32 l3 -88 319 0z m-2583 105 c15 -30 30 -55 33 -55 3 0 18 25 33 55
15 30 31 55 36 55 15 0 -52 -139 -66 -140 -7 0 -29 32 -48 70 -19 39 -31 70
-25 70 6 0 22 -25 37 -55z m-217 -115 c0 -5 -22 -10 -50 -10 -27 0 -50 5 -50
10 0 6 23 10 50 10 28 0 50 -4 50 -10z m720 0 c0 -6 -43 -10 -110 -10 -67 0
-110 4 -110 10 0 6 43 10 110 10 67 0 110 -4 110 -10z m480 0 c0 -6 -43 -10
-110 -10 -67 0 -110 4 -110 10 0 6 43 10 110 10 67 0 110 -4 110 -10z m4200 0
c0 -6 -43 -10 -110 -10 -67 0 -110 4 -110 10 0 6 43 10 110 10 67 0 110 -4
110 -10z m960 0 c0 -6 -103 -10 -290 -10 -187 0 -290 4 -290 10 0 6 103 10
290 10 187 0 290 -4 290 -10z m-7480 -160 c0 -53 -4 -90 -10 -90 -6 0 -10 37
-10 90 0 53 4 90 10 90 6 0 10 -37 10 -90z m240 0 c0 -53 -4 -90 -10 -90 -6 0
-10 37 -10 90 0 53 4 90 10 90 6 0 10 -37 10 -90z m118 4 c24 -48 41 -89 38
-91 -3 -3 -25 36 -50 86 -26 50 -43 91 -38 91 4 0 27 -39 50 -86z m362 -4 c0
-53 -4 -90 -10 -90 -6 0 -10 37 -10 90 0 53 4 90 10 90 6 0 10 -37 10 -90z
m639 83 c0 -15 -88 -178 -88 -166 -1 18 71 173 80 173 5 0 9 -3 8 -7z m79 -79
c24 -48 41 -89 38 -91 -3 -3 -25 36 -50 86 -26 50 -43 91 -38 91 4 0 27 -39
50 -86z m480 0 c24 -48 41 -89 38 -91 -3 -3 -25 36 -50 86 -26 50 -43 91 -38
91 4 0 27 -39 50 -86z m480 0 c24 -48 41 -89 38 -91 -3 -3 -25 36 -50 86 -26
50 -43 91 -38 91 4 0 27 -39 50 -86z m242 -4 c0 -53 -4 -90 -10 -90 -6 0 -10
37 -10 90 0 53 4 90 10 90 6 0 10 -37 10 -90z m240 0 c0 -53 -4 -90 -10 -90
-6 0 -10 37 -10 90 0 53 4 90 10 90 6 0 10 -37 10 -90z m238 4 c24 -48 41 -89
38 -91 -3 -3 -25 36 -50 86 -26 50 -43 91 -38 91 4 0 27 -39 50 -86z m480 1
c23 -47 38 -85 34 -85 -4 0 -27 38 -50 85 -23 47 -38 85 -34 85 4 0 27 -38 50
-85z m722 -5 c0 -53 -4 -90 -10 -90 -6 0 -10 37 -10 90 0 53 4 90 10 90 6 0
10 -37 10 -90z m240 0 c0 -53 -4 -90 -10 -90 -6 0 -10 37 -10 90 0 53 4 90 10
90 6 0 10 -37 10 -90z m360 0 c0 -53 -4 -90 -10 -90 -6 0 -10 37 -10 90 0 53
4 90 10 90 6 0 10 -37 10 -90z m240 0 c0 -53 -4 -90 -10 -90 -6 0 -10 37 -10
90 0 53 4 90 10 90 6 0 10 -37 10 -90z m240 0 c0 -53 -4 -90 -10 -90 -6 0 -10
37 -10 90 0 53 4 90 10 90 6 0 10 -37 10 -90z m240 0 c0 -53 -4 -90 -10 -90
-6 0 -10 37 -10 90 0 53 4 90 10 90 6 0 10 -37 10 -90z m240 0 c0 -53 -4 -90
-10 -90 -6 0 -10 37 -10 90 0 53 4 90 10 90 6 0 10 -37 10 -90z m240 0 c0 -53
-4 -90 -10 -90 -6 0 -10 37 -10 90 0 53 4 90 10 90 6 0 10 -37 10 -90z m240 0
c0 -53 -4 -90 -10 -90 -6 0 -10 37 -10 90 0 53 4 90 10 90 6 0 10 -37 10 -90z
m240 0 c0 -53 -4 -90 -10 -90 -6 0 -10 37 -10 90 0 53 4 90 10 90 6 0 10 -37
10 -90z m240 0 c0 -53 -4 -90 -10 -90 -6 0 -10 37 -10 90 0 53 4 90 10 90 6 0
10 -37 10 -90z m720 0 c0 -53 -4 -90 -10 -90 -6 0 -10 37 -10 90 0 53 4 90 10
90 6 0 10 -37 10 -90z m240 0 c0 -53 -4 -90 -10 -90 -6 0 -10 37 -10 90 0 53
4 90 10 90 6 0 10 -37 10 -90z m-6560 -100 c0 -6 -43 -10 -110 -10 -67 0 -110
4 -110 10 0 6 43 10 110 10 67 0 110 -4 110 -10z m480 0 c0 -6 -43 -10 -110
-10 -67 0 -110 4 -110 10 0 6 43 10 110 10 67 0 110 -4 110 -10z m480 0 c0 -6
-43 -10 -110 -10 -67 0 -110 4 -110 10 0 6 43 10 110 10 67 0 110 -4 110 -10z
m600 0 c0 -5 -22 -10 -50 -10 -27 0 -50 5 -50 10 0 6 23 10 50 10 28 0 50 -4
50 -10z m600 0 c0 -6 -43 -10 -110 -10 -67 0 -110 4 -110 10 0 6 43 10 110 10
67 0 110 -4 110 -10z m840 0 c0 -6 -103 -10 -290 -10 -187 0 -290 4 -290 10 0
6 103 10 290 10 187 0 290 -4 290 -10z m1320 0 c0 -5 -22 -10 -50 -10 -27 0
-50 5 -50 10 0 6 23 10 50 10 28 0 50 -4 50 -10z m960 0 c0 -5 -22 -10 -50
-10 -27 0 -50 5 -50 10 0 6 23 10 50 10 28 0 50 -4 50 -10z m960 0 c0 -6 -103
-10 -290 -10 -187 0 -290 4 -290 10 0 6 103 10 290 10 187 0 290 -4 290 -10z
m-7480 -160 c0 -53 -4 -90 -10 -90 -6 0 -10 37 -10 90 0 53 4 90 10 90 6 0 10
-37 10 -90z m240 0 c0 -53 -4 -90 -10 -90 -6 0 -10 37 -10 90 0 53 4 90 10 90
6 0 10 -37 10 -90z m238 4 c24 -48 41 -89 38 -91 -3 -3 -25 36 -50 86 -26 50
-43 91 -38 91 4 0 27 -39 50 -86z m242 -4 c0 -53 -4 -90 -10 -90 -6 0 -10 37
-10 90 0 53 4 90 10 90 6 0 10 -37 10 -90z m118 4 c24 -48 41 -89 38 -91 -3
-3 -25 36 -50 86 -26 50 -43 91 -38 91 4 0 27 -39 50 -86z m502 -4 c0 -53 -4
-90 -10 -90 -6 0 -10 37 -10 90 0 53 4 90 10 90 6 0 10 -37 10 -90z m80 0 c0
-53 -4 -90 -10 -90 -6 0 -10 37 -10 90 0 53 4 90 10 90 6 0 10 -37 10 -90z
m539 83 c-1 -16 -88 -178 -88 -165 -1 19 71 172 80 172 5 0 9 -3 8 -7z m480 0
c-1 -16 -88 -178 -88 -165 -1 19 71 172 80 172 5 0 9 -3 8 -7z m79 -78 c23
-47 38 -85 34 -85 -4 0 -27 38 -50 85 -23 47 -38 85 -34 85 4 0 27 -38 50 -85z
m1121 78 c-1 -16 -88 -178 -88 -165 -1 19 71 172 80 172 5 0 9 -3 8 -7z m681
-83 c0 -53 -4 -90 -10 -90 -6 0 -10 37 -10 90 0 53 4 90 10 90 6 0 10 -37 10
-90z m240 0 c0 -53 -4 -90 -10 -90 -6 0 -10 37 -10 90 0 53 4 90 10 90 6 0 10
-37 10 -90z m360 0 c0 -53 -4 -90 -10 -90 -6 0 -10 37 -10 90 0 53 4 90 10 90
6 0 10 -37 10 -90z m240 0 c0 -53 -4 -90 -10 -90 -6 0 -10 37 -10 90 0 53 4
90 10 90 6 0 10 -37 10 -90z m118 5 c23 -47 38 -85 34 -85 -4 0 -27 38 -50 85
-23 47 -38 85 -34 85 4 0 27 -38 50 -85z m842 -5 c0 -53 -4 -90 -10 -90 -6 0
-10 37 -10 90 0 53 4 90 10 90 6 0 10 -37 10 -90z m118 4 c24 -48 41 -89 38
-91 -3 -3 -25 36 -50 86 -26 50 -43 91 -38 91 4 0 27 -39 50 -86z m602 -4 c0
-53 -4 -90 -10 -90 -6 0 -10 37 -10 90 0 53 4 90 10 90 6 0 10 -37 10 -90z
m720 0 c0 -53 -4 -90 -10 -90 -6 0 -10 37 -10 90 0 53 4 90 10 90 6 0 10 -37
10 -90z m240 0 c0 -53 -4 -90 -10 -90 -6 0 -10 37 -10 90 0 53 4 90 10 90 6 0
10 -37 10 -90z m-4480 -90 c127 0 200 -4 200 -10 0 -6 -103 -10 -290 -10 -187
0 -290 4 -290 10 0 6 33 10 80 10 l80 0 0 48 c0 26 4 65 8 87 6 33 7 25 10
-47 l3 -88 199 0z m2640 0 c47 0 80 -4 80 -10 0 -6 -63 -10 -170 -10 -107 0
-170 4 -170 10 0 6 33 10 80 10 l80 0 2 38 c1 20 1 53 0 72 -1 19 1 42 5 50 5
8 9 -24 11 -72 l3 -88 79 0z m720 0 c47 0 80 -4 80 -10 0 -6 -83 -10 -230 -10
-147 0 -230 4 -230 10 0 6 53 10 140 10 l140 0 0 78 c0 108 14 114 18 8 l3
-86 79 0z m-3790 40 c0 -14 -22 -60 -30 -60 -3 0 -4 16 -2 35 3 21 10 35 18
35 8 0 14 -4 14 -10z m2760 0 c0 -14 -22 -60 -30 -60 -3 0 -4 16 -2 35 3 21
10 35 18 35 8 0 14 -4 14 -10z m-5490 -50 c0 -5 -22 -10 -50 -10 -27 0 -50 5
-50 10 0 6 23 10 50 10 28 0 50 -4 50 -10z m480 0 c0 -5 -22 -10 -50 -10 -27
0 -50 5 -50 10 0 6 23 10 50 10 28 0 50 -4 50 -10z m600 0 c0 -6 -63 -10 -170
-10 -107 0 -170 4 -170 10 0 6 63 10 170 10 107 0 170 -4 170 -10z m600 0 c0
-6 -63 -10 -170 -10 -107 0 -170 4 -170 10 0 6 63 10 170 10 107 0 170 -4 170
-10z m480 0 c0 -6 -63 -10 -170 -10 -107 0 -170 4 -170 10 0 6 63 10 170 10
107 0 170 -4 170 -10z m480 0 c0 -6 -43 -10 -110 -10 -67 0 -110 4 -110 10 0
6 43 10 110 10 67 0 110 -4 110 -10z m1680 0 c0 -5 -22 -10 -50 -10 -27 0 -50
5 -50 10 0 6 23 10 50 10 28 0 50 -4 50 -10z m600 0 c0 -5 -22 -10 -50 -10
-27 0 -50 5 -50 10 0 6 23 10 50 10 28 0 50 -4 50 -10z m480 0 c0 -6 -43 -10
-110 -10 -67 0 -110 4 -110 10 0 6 43 10 110 10 67 0 110 -4 110 -10z m2160 0
c0 -5 -22 -10 -50 -10 -27 0 -50 5 -50 10 0 6 23 10 50 10 28 0 50 -4 50 -10z
m-8540 -330 c0 -5 -9 -10 -20 -10 -18 0 -20 -7 -20 -75 0 -68 2 -75 20 -75 11
0 20 -4 20 -10 0 -5 -11 -10 -25 -10 -25 0 -25 0 -25 95 0 95 0 95 25 95 14 0
25 -4 25 -10z m240 -85 l0 -95 -31 0 c-17 0 -28 4 -24 10 3 6 13 10 21 10 11
0 14 16 14 75 0 59 -3 75 -14 75 -8 0 -18 5 -21 10 -4 6 7 10 24 10 l31 0 0
-95z m-140 65 c0 -5 -4 -10 -10 -10 -5 0 -10 5 -10 10 0 6 5 10 10 10 6 0 10
-4 10 -10z m950 -51 c0 -52 3 -62 20 -66 27 -7 25 -25 -2 -21 -21 3 -24 10
-28 67 -4 52 -9 66 -25 72 -17 7 -16 8 8 8 27 1 27 0 27 -60z m120 0 c0 -52 3
-62 20 -66 27 -7 25 -25 -2 -21 -21 3 -24 10 -28 67 -4 52 -9 66 -25 72 -17 7
-16 8 8 8 27 1 27 0 27 -60z m130 51 c0 -5 -4 -10 -10 -10 -5 0 -10 5 -10 10
0 6 5 10 10 10 6 0 10 -4 10 -10z m810 -14 c0 -21 5 -24 28 -23 26 2 27 0 30
-50 2 -32 -1 -53 -7 -53 -6 0 -11 20 -11 46 0 38 -3 45 -17 42 -13 -2 -19 -15
-21 -46 -5 -71 -22 -46 -22 33 0 43 4 75 10 75 6 0 10 -11 10 -24z m780 -49
l0 -73 -27 2 c-48 2 -51 3 -57 30 -9 35 18 78 45 71 15 -4 19 0 19 19 0 13 5
24 10 24 6 0 10 -31 10 -73z m330 63 c0 -5 -4 -10 -10 -10 -5 0 -10 5 -10 10
0 6 5 10 10 10 6 0 10 -4 10 -10z m870 -63 l0 -73 -27 2 c-48 2 -51 3 -57 30
-9 35 18 78 45 71 15 -4 19 0 19 19 0 13 5 24 10 24 6 0 10 -31 10 -73z m240
0 l0 -73 -27 2 c-48 2 -51 3 -57 30 -9 35 18 78 45 71 15 -4 19 0 19 19 0 13
5 24 10 24 6 0 10 -31 10 -73z m250 64 c0 -5 -10 -11 -22 -13 -30 -4 -35 -28
-6 -29 l23 0 -22 -9 c-18 -8 -23 -18 -25 -52 l-1 -43 -4 40 c-2 22 -11 46 -20
53 -16 11 -16 12 0 12 10 0 17 8 17 19 0 11 6 22 13 24 21 9 47 7 47 -2z m830
-64 l0 -73 -27 2 c-48 2 -51 3 -57 30 -9 35 18 78 45 71 15 -4 19 0 19 19 0
13 5 24 10 24 6 0 10 -31 10 -73z m210 63 c0 -5 -4 -10 -10 -10 -5 0 -10 5
-10 10 0 6 5 10 10 10 6 0 10 -4 10 -10z m590 -51 c0 -52 3 -62 20 -66 27 -7
25 -25 -2 -21 -21 3 -24 10 -28 67 -4 52 -9 66 -25 72 -17 7 -16 8 8 8 27 1
27 0 27 -60z m120 0 c0 -52 3 -62 20 -66 27 -7 25 -25 -2 -21 -21 3 -24 10
-28 67 -4 52 -9 66 -25 72 -17 7 -16 8 8 8 27 1 27 0 27 -60z m130 51 c0 -5
-4 -10 -10 -10 -5 0 -10 5 -10 10 0 6 5 10 10 10 6 0 10 -4 10 -10z m-5970
-10 c0 -5 -7 -10 -15 -10 -11 0 -15 -12 -15 -50 0 -38 4 -50 15 -50 8 0 15 -4
15 -10 0 -5 -18 -10 -40 -10 -22 0 -40 5 -40 10 0 6 7 10 15 10 11 0 15 12 15
50 0 38 -4 50 -15 50 -8 0 -15 5 -15 10 0 6 18 10 40 10 22 0 40 -4 40 -10z
m320 -10 c0 -5 10 -11 23 -11 l22 -2 -22 -4 c-19 -4 -23 -11 -23 -44 0 -32 3
-39 20 -39 11 0 20 -4 20 -10 0 -14 -33 -13 -48 2 -7 7 -12 29 -12 50 0 21 -5
38 -10 38 -6 0 -5 6 2 15 15 17 28 19 28 5z m1200 0 c0 -5 10 -11 23 -11 l22
-2 -22 -4 c-19 -4 -23 -11 -23 -44 0 -32 3 -39 20 -39 11 0 20 -4 20 -10 0
-14 -33 -13 -48 2 -7 7 -12 29 -12 50 0 21 -5 38 -10 38 -6 0 -5 6 2 15 15 17
28 19 28 5z m3960 0 c0 -5 10 -10 23 -11 l22 0 -22 -9 c-32 -13 -34 -80 -3
-80 11 0 20 -4 20 -10 0 -14 -33 -13 -48 2 -7 7 -12 29 -12 50 0 21 -5 38 -10
38 -6 0 -5 6 2 15 15 17 28 19 28 5z m-4395 -18 c-6 -4 -10 -18 -10 -32 0 -20
-6 -26 -27 -28 -39 -5 -35 -18 7 -26 25 -5 35 -12 35 -25 0 -32 -67 -44 -90
-16 -14 17 -7 19 20 5 20 -11 50 -4 50 11 0 5 -11 9 -24 9 -29 0 -39 13 -43
56 -4 36 10 51 52 56 34 4 44 0 30 -10z m5160 0 c-6 -4 -10 -18 -10 -32 0 -20
-6 -26 -27 -28 -39 -5 -35 -18 7 -26 25 -5 35 -12 35 -25 0 -32 -67 -44 -90
-16 -14 17 -7 19 20 5 19 -10 50 -4 50 10 0 5 -14 10 -32 12 -30 3 -32 6 -35
44 -3 47 8 61 52 66 34 4 44 0 30 -10z m-6625 -41 c0 -30 5 -51 13 -54 6 -3
-8 -5 -33 -6 -37 0 -41 2 -22 9 28 12 32 73 5 89 -15 9 -14 10 10 11 26 0 27
-2 27 -49z m498 -8 c2 -32 -1 -53 -7 -53 -6 0 -11 20 -11 46 0 38 -3 45 -17
42 -13 -2 -19 -15 -21 -46 -5 -61 -22 -52 -22 12 l0 53 38 -1 37 -1 3 -52z
m112 47 c11 -7 7 -10 -17 -10 -41 0 -43 -15 -3 -29 20 -6 30 -17 30 -30 0 -25
-40 -38 -67 -22 -15 9 -13 10 15 11 38 0 42 17 8 30 -32 12 -41 28 -26 45 14
17 38 19 60 5z m238 -2 c7 -7 12 -30 12 -52 0 -40 -1 -41 -35 -43 -25 -1 -38
4 -45 17 -12 22 11 50 41 50 10 0 19 5 19 10 0 6 -12 10 -26 10 -14 0 -23 4
-19 10 8 14 38 13 53 -2z m352 -37 c0 -30 5 -51 13 -54 6 -3 -8 -5 -33 -6 -37
0 -41 2 -22 9 28 12 32 73 5 89 -15 9 -14 10 10 11 26 0 27 -2 27 -49z m138
-8 c2 -32 -1 -53 -7 -53 -6 0 -11 20 -11 46 0 38 -3 45 -17 42 -13 -2 -19 -15
-21 -46 -5 -61 -22 -52 -22 12 l0 53 38 -1 37 -1 3 -52z m362 37 c24 -38 -4
-97 -41 -87 -15 4 -19 0 -19 -19 0 -13 -4 -24 -10 -24 -6 0 -10 31 -10 74 l0
73 35 -1 c20 -1 40 -8 45 -16z m65 -22 c15 -53 21 -54 34 -3 6 25 16 45 21 45
13 0 13 3 -10 -65 -23 -66 -36 -85 -59 -85 -14 1 -13 3 3 15 18 13 18 15 -2
75 -14 40 -17 60 -9 57 6 -2 16 -20 22 -39z m409 26 c21 -20 20 -53 -1 -76
-32 -36 -73 -16 -73 37 0 51 41 73 74 39z m124 -41 c2 -32 -1 -53 -7 -53 -6 0
-11 20 -11 46 0 38 -3 45 -17 42 -13 -2 -19 -15 -21 -46 -5 -61 -22 -52 -22
12 l0 53 38 -1 37 -1 3 -52z m237 48 c3 -5 -7 -11 -22 -13 -24 -3 -28 -8 -28
-33 0 -25 4 -30 28 -33 30 -4 28 -22 -3 -22 -25 0 -50 26 -50 52 0 40 57 77
75 49z m119 -7 c21 -20 20 -53 -1 -76 -33 -37 -73 -16 -73 39 0 47 43 69 74
37z m240 0 c27 -27 20 -44 -19 -44 -24 0 -35 -5 -35 -15 0 -10 10 -15 33 -15
28 -1 30 -2 13 -11 -32 -19 -66 4 -66 45 0 50 42 73 74 40z m226 -33 c0 -30 5
-51 13 -54 6 -3 -8 -5 -33 -6 -37 0 -41 2 -22 9 28 12 32 73 5 89 -15 9 -14
10 10 11 26 0 27 -2 27 -49z m138 -8 c2 -32 -1 -53 -7 -53 -6 0 -11 20 -11 46
0 38 -3 45 -17 42 -13 -2 -19 -15 -21 -46 -5 -61 -22 -52 -22 12 l0 53 38 -1
37 -1 3 -52z m236 41 c27 -27 20 -44 -19 -44 -24 0 -35 -5 -35 -15 0 -10 10
-15 33 -15 28 -1 30 -2 13 -11 -32 -19 -66 4 -66 45 0 50 42 73 74 40z m124
-41 c2 -32 -1 -53 -7 -53 -6 0 -11 20 -11 46 0 38 -3 45 -17 42 -13 -2 -19
-15 -21 -46 -5 -61 -22 -52 -22 12 l0 53 38 -1 37 -1 3 -52z m117 48 c3 -5 -7
-11 -22 -13 -24 -3 -28 -8 -28 -33 0 -25 4 -30 28 -33 30 -4 28 -22 -3 -22
-25 0 -50 26 -50 52 0 40 57 77 75 49z m119 -7 c21 -20 20 -53 -1 -76 -32 -36
-73 -16 -73 37 0 51 41 73 74 39z m240 0 c27 -27 20 -44 -19 -44 -24 0 -35 -5
-35 -15 0 -10 10 -15 33 -15 28 -1 30 -2 13 -11 -32 -19 -66 4 -66 45 0 50 42
73 74 40z m480 0 c21 -20 20 -53 -1 -76 -32 -36 -73 -16 -73 37 0 51 41 73 74
39z m79 4 c4 -10 7 -10 18 0 20 18 39 15 39 -8 0 -22 -16 -27 -22 -8 -2 6 -10
8 -16 4 -16 -10 -15 -73 1 -79 6 -3 -4 -6 -22 -6 -27 -1 -32 2 -23 11 14 14
16 78 2 78 -5 0 -10 5 -10 10 0 14 27 12 33 -2z m173 -48 c1 -51 1 -52 -3 -7
-3 32 -9 47 -19 47 -10 0 -14 -12 -14 -45 0 -25 -4 -45 -10 -45 -5 0 -10 20
-10 45 0 25 -4 45 -10 45 -5 0 -10 -20 -10 -45 0 -25 -4 -45 -10 -45 -5 0 -10
24 -10 53 l0 52 48 0 47 0 1 -55z m222 48 c7 -7 12 -29 12 -49 0 -33 -3 -37
-32 -43 -24 -5 -36 -2 -45 10 -17 23 -5 44 28 51 36 7 38 23 3 23 -14 0 -23 4
-19 10 8 14 38 13 53 -2z m130 -45 c2 -36 -1 -53 -9 -53 -8 0 -10 11 -6 33 6
40 -5 62 -27 54 -11 -4 -16 -19 -16 -47 0 -22 -4 -40 -10 -40 -5 0 -10 24 -10
54 l0 53 38 -1 37 -1 3 -52z m342 8 c0 -30 5 -51 13 -54 6 -3 -8 -5 -33 -6
-37 0 -41 2 -22 9 28 12 32 73 5 89 -15 9 -14 10 10 11 26 0 27 -2 27 -49z
m138 -8 c2 -32 -1 -53 -7 -53 -6 0 -11 20 -11 46 0 38 -3 45 -17 42 -13 -2
-19 -15 -21 -46 -5 -61 -22 -52 -22 12 l0 53 38 -1 37 -1 3 -52z m112 47 c11
-7 7 -10 -17 -10 -41 0 -43 -15 -3 -29 20 -6 30 -17 30 -30 0 -25 -40 -38 -67
-22 -15 9 -13 10 15 11 38 0 42 17 8 30 -32 12 -41 28 -26 45 14 17 38 19 60
5z m238 -2 c7 -7 12 -30 12 -52 0 -40 -1 -41 -35 -43 -25 -1 -38 4 -45 17 -12
22 11 50 41 50 10 0 19 5 19 10 0 6 -12 10 -26 10 -14 0 -23 4 -19 10 8 14 38
13 53 -2z m352 -37 c0 -30 5 -51 13 -54 6 -3 -8 -5 -33 -6 -37 0 -41 2 -22 9
28 12 32 73 5 89 -15 9 -14 10 10 11 26 0 27 -2 27 -49z m138 -8 c2 -32 -1
-53 -7 -53 -6 0 -11 20 -11 46 0 38 -3 45 -17 42 -13 -2 -19 -15 -21 -46 -5
-61 -22 -52 -22 12 l0 53 38 -1 37 -1 3 -52z m-1891 -320 c-2 -38 -3 -7 -3 67
0 74 1 105 3 68 2 -38 2 -98 0 -135z m-1818 160 c-1 -16 -88 -178 -88 -165 -1
19 71 172 80 172 5 0 9 -3 8 -7z m600 0 c-1 -16 -88 -178 -88 -165 -1 19 71
172 80 172 5 0 9 -3 8 -7z m-2039 -12 c0 -5 -10 -11 -22 -13 -30 -4 -35 -28
-6 -29 l23 0 -22 -9 c-18 -8 -23 -18 -25 -52 l-1 -43 -4 40 c-2 22 -11 46 -20
53 -16 11 -16 12 0 12 10 0 17 8 17 19 0 11 6 22 13 24 21 9 47 7 47 -2z m85
-1 c-3 -5 -10 -10 -16 -10 -5 0 -9 5 -9 10 0 6 7 10 16 10 8 0 12 -4 9 -10z
m105 -51 c0 -52 3 -62 20 -66 27 -7 25 -25 -2 -21 -21 3 -24 10 -28 67 -4 52
-9 66 -25 72 -17 7 -16 8 8 8 27 1 27 0 27 -60z m700 37 c0 -21 5 -24 28 -23
26 2 27 0 30 -50 2 -32 -1 -53 -7 -53 -6 0 -11 20 -11 46 0 38 -3 45 -17 42
-13 -2 -19 -15 -21 -46 -5 -71 -22 -46 -22 33 0 43 4 75 10 75 6 0 10 -11 10
-24z m1390 15 c0 -5 -10 -11 -22 -13 -30 -4 -35 -28 -6 -29 l23 0 -22 -9 c-18
-8 -23 -18 -25 -52 l-1 -43 -4 40 c-2 22 -11 46 -20 53 -16 11 -16 12 0 12 10
0 17 8 17 19 0 11 6 22 13 24 21 9 47 7 47 -2z m85 -1 c-3 -5 -10 -10 -16 -10
-5 0 -9 5 -9 10 0 6 7 10 16 10 8 0 12 -4 9 -10z m105 -51 c0 -52 3 -62 20
-66 27 -7 25 -25 -2 -21 -21 3 -24 10 -28 67 -4 52 -9 66 -25 72 -17 7 -16 8
8 8 27 1 27 0 27 -60z m-3910 41 c0 -5 -9 -10 -20 -10 -18 0 -20 -7 -20 -60 0
-33 -4 -60 -10 -60 -6 0 -10 27 -10 60 0 53 -2 60 -20 60 -11 0 -20 5 -20 10
0 6 23 10 50 10 28 0 50 -4 50 -10z m557 -47 l21 -58 1 58 c1 31 6 57 11 57 6
0 10 -30 10 -71 0 -59 -3 -70 -16 -67 -9 2 -26 28 -38 58 l-21 55 -6 -60 -6
-60 -1 73 c-2 90 14 96 45 15z m1673 37 c0 -5 10 -11 23 -11 l22 -2 -22 -4
c-19 -4 -23 -11 -23 -44 0 -32 3 -39 20 -39 11 0 20 -4 20 -10 0 -14 -33 -13
-48 2 -7 7 -12 29 -12 50 0 21 -5 38 -10 38 -6 0 -5 6 2 15 15 17 28 19 28 5z
m1080 0 c0 -5 10 -11 23 -11 l22 -2 -22 -4 c-19 -4 -23 -11 -23 -44 0 -32 3
-39 20 -39 11 0 20 -4 20 -10 0 -14 -33 -13 -48 2 -7 7 -12 29 -12 50 0 21 -5
38 -10 38 -6 0 -5 6 2 15 15 17 28 19 28 5z m280 -10 c0 -5 -14 -17 -32 -26
l-32 -17 22 -18 c12 -9 28 -19 35 -22 6 -2 9 -7 6 -11 -9 -9 -79 33 -79 47 0
7 17 22 38 34 44 26 42 26 42 13z m1080 -47 c0 -13 -68 -58 -77 -50 -3 4 11
16 31 28 l37 22 -36 21 c-20 12 -33 25 -29 28 8 9 74 -34 74 -49z m-4615 5
c15 -53 21 -54 34 -3 6 25 16 45 21 45 13 0 13 3 -10 -65 -23 -66 -36 -85 -59
-85 -14 1 -13 3 3 15 18 13 18 15 -2 75 -14 40 -17 60 -9 57 6 -2 16 -20 22
-39z m175 22 c24 -38 -4 -97 -41 -87 -15 4 -19 0 -19 -19 0 -13 -4 -24 -10
-24 -6 0 -10 31 -10 74 l0 73 35 -1 c20 -1 40 -8 45 -16z m114 4 c27 -27 20
-44 -19 -44 -24 0 -35 -5 -35 -15 0 -10 10 -15 33 -15 28 -1 30 -2 13 -11 -32
-19 -66 4 -66 45 0 50 42 73 74 40z m360 0 c27 -27 20 -44 -19 -44 -24 0 -35
-5 -35 -15 0 -10 10 -15 33 -15 28 -1 30 -2 13 -11 -32 -19 -66 4 -66 45 0 50
42 73 74 40z m116 6 c11 -7 7 -10 -17 -10 -41 0 -43 -15 -3 -29 20 -6 30 -17
30 -30 0 -25 -40 -38 -67 -22 -15 9 -13 10 15 11 38 0 42 17 8 30 -32 12 -41
28 -26 45 14 17 38 19 60 5z m120 0 c11 -7 7 -10 -17 -10 -41 0 -43 -15 -3
-29 20 -6 30 -17 30 -30 0 -25 -40 -38 -67 -22 -15 9 -13 10 15 11 38 0 42 17
8 30 -32 12 -41 28 -26 45 14 17 38 19 60 5z m70 -35 c0 -38 3 -45 20 -45 17
0 20 7 20 45 0 25 5 45 10 45 6 0 10 -24 10 -52 0 -52 0 -53 -30 -52 -16 1
-34 2 -40 3 -5 0 -10 24 -10 51 0 28 5 50 10 50 6 0 10 -20 10 -45z m170 35
c11 -7 7 -10 -17 -10 -41 0 -43 -15 -3 -29 20 -6 30 -17 30 -30 0 -25 -40 -38
-67 -22 -15 9 -13 10 15 11 38 0 42 17 8 30 -32 12 -41 28 -26 45 14 17 38 19
60 5z m604 -6 c27 -27 20 -44 -19 -44 -24 0 -35 -5 -35 -15 0 -10 10 -15 33
-15 28 -1 30 -2 13 -11 -32 -19 -66 4 -66 45 0 50 42 73 74 40z m246 -4 c25
-39 -4 -97 -41 -85 -15 5 -19 1 -19 -19 0 -14 -4 -26 -10 -26 -6 0 -10 31 -10
74 l0 73 35 -1 c20 -1 40 -8 45 -16z m108 8 c7 -7 12 -30 12 -52 0 -40 -1 -41
-35 -43 -25 -1 -38 4 -45 17 -12 22 11 50 41 50 10 0 19 5 19 10 0 6 -12 10
-26 10 -14 0 -23 4 -19 10 8 14 38 13 53 -2z m470 -6 c2 -7 -3 -12 -12 -12 -9
0 -16 7 -16 16 0 17 22 14 28 -4z m335 6 c4 -10 7 -10 18 0 20 18 39 15 39 -8
0 -22 -16 -27 -22 -8 -2 6 -10 8 -16 4 -16 -10 -15 -73 1 -79 6 -3 -4 -6 -22
-6 -27 -1 -32 2 -23 11 14 14 16 78 2 78 -5 0 -10 5 -10 10 0 14 27 12 33 -2z
m161 -4 c21 -20 20 -53 -1 -76 -32 -36 -73 -16 -73 37 0 51 41 73 74 39z m120
0 c21 -20 20 -53 -1 -76 -32 -36 -73 -16 -73 37 0 51 41 73 74 39z m840 0 c27
-27 20 -44 -19 -44 -24 0 -35 -5 -35 -15 0 -10 10 -15 33 -15 28 -1 30 -2 13
-11 -32 -19 -66 4 -66 45 0 50 42 73 74 40z m124 -41 c2 -32 -1 -53 -7 -53 -6
0 -11 20 -11 46 0 38 -3 45 -17 42 -13 -2 -19 -15 -21 -46 -5 -61 -22 -52 -22
12 l0 53 38 -1 37 -1 3 -52z m110 45 c7 -7 12 -30 12 -52 0 -40 -1 -41 -35
-43 -25 -1 -38 4 -45 17 -12 22 11 50 41 50 10 0 19 5 19 10 0 6 -12 10 -26
10 -14 0 -23 4 -19 10 8 14 38 13 53 -2z m138 -48 c1 -51 1 -52 -3 -7 -3 32
-9 47 -19 47 -10 0 -14 -12 -14 -45 0 -25 -4 -45 -10 -45 -5 0 -10 20 -10 45
0 25 -4 45 -10 45 -5 0 -10 -20 -10 -45 0 -25 -4 -45 -10 -45 -5 0 -10 24 -10
53 l0 52 48 0 47 0 1 -55z m108 44 c27 -27 20 -44 -19 -44 -24 0 -35 -5 -35
-15 0 -10 10 -15 33 -15 28 -1 30 -2 13 -11 -32 -19 -66 4 -66 45 0 50 42 73
74 40z m-3014 -38 c0 -26 5 -46 13 -49 6 -3 -8 -5 -33 -6 -37 0 -41 2 -22 9
28 12 31 64 5 79 -15 9 -14 10 10 11 25 0 27 -3 27 -44z m2280 0 c0 -26 5 -46
13 -49 6 -3 -8 -5 -33 -6 -37 0 -41 2 -22 9 28 12 31 64 5 79 -15 9 -14 10 10
11 25 0 27 -3 27 -44z m-1202 -38 c-6 -18 -28 -21 -28 -4 0 9 7 16 16 16 9 0
14 -5 12 -12z"/>
<path d="M2340 3180 c0 -48 2 -51 23 -48 19 3 22 9 22 48 0 39 -3 45 -22 48
-21 3 -23 0 -23 -48z"/>
<path d="M2460 3186 c0 -11 9 -16 26 -16 31 0 28 23 -4 28 -15 2 -22 -2 -22
-12z"/>
<path d="M2938 3183 c-8 -34 2 -54 25 -51 31 4 32 62 1 66 -14 2 -23 -3 -26
-15z"/>
<path d="M3067 3194 c-4 -4 -7 -20 -7 -36 0 -25 4 -29 23 -26 17 2 22 10 22
33 0 29 -22 45 -38 29z"/>
<path d="M3420 3186 c0 -11 9 -16 26 -16 31 0 28 23 -4 28 -15 2 -22 -2 -22
-12z"/>
<path d="M653 2894 c-3 -8 -1 -20 4 -25 14 -14 43 0 43 22 0 24 -38 26 -47 3z"/>
<path d="M1273 2943 c-23 -8 -14 -33 12 -33 14 0 25 4 25 9 0 14 -24 29 -37
24z"/>
<path d="M775 2661 c-8 -26 4 -51 26 -51 15 0 19 7 19 35 0 28 -4 35 -19 35
-11 0 -22 -8 -26 -19z"/>
<path d="M1855 2661 c-8 -26 4 -51 26 -51 15 0 19 7 19 35 0 28 -4 35 -19 35
-11 0 -22 -8 -26 -19z"/>
<path d="M3895 2661 c-8 -26 4 -51 26 -51 15 0 19 7 19 35 0 28 -4 35 -19 35
-11 0 -22 -8 -26 -19z"/>
<path d="M4495 2661 c-8 -26 4 -51 26 -51 15 0 19 7 19 35 0 28 -4 35 -19 35
-11 0 -22 -8 -26 -19z"/>
<path d="M1387 2684 c-16 -16 -7 -44 14 -44 15 0 20 5 17 22 -3 22 -19 33 -31
22z"/>
<path d="M3187 2684 c-16 -16 -7 -44 14 -44 15 0 20 5 17 22 -3 22 -19 33 -31
22z"/>
<path d="M667 2674 c-4 -4 -7 -20 -7 -36 0 -25 4 -29 23 -26 17 2 22 10 22 33
0 29 -22 45 -38 29z"/>
<path d="M902 2638 c-8 -8 -8 -15 -1 -24 14 -17 39 -6 39 17 0 21 -20 25 -38
7z"/>
<path d="M1621 2637 c-13 -16 -5 -27 21 -27 11 0 18 7 18 20 0 23 -22 27 -39
7z"/>
<path d="M2581 2637 c-13 -16 -5 -27 21 -27 11 0 18 7 18 20 0 23 -22 27 -39
7z"/>
<path d="M3660 2666 c0 -11 9 -16 26 -16 31 0 28 23 -4 28 -15 2 -22 -2 -22
-12z"/>
<path d="M4020 2666 c0 -11 9 -16 26 -16 31 0 28 23 -4 28 -15 2 -22 -2 -22
-12z"/>
<path d="M4147 2674 c-4 -4 -7 -20 -7 -36 0 -25 4 -29 23 -26 17 2 22 10 22
33 0 29 -22 45 -38 29z"/>
<path d="M4260 2666 c0 -11 9 -16 26 -16 31 0 28 23 -4 28 -15 2 -22 -2 -22
-12z"/>
<path d="M4620 2666 c0 -11 9 -16 26 -16 31 0 28 23 -4 28 -15 2 -22 -2 -22
-12z"/>
<path d="M5100 2666 c0 -11 9 -16 26 -16 31 0 28 23 -4 28 -15 2 -22 -2 -22
-12z"/>
<path d="M6901 2637 c-13 -16 -5 -27 21 -27 11 0 18 7 18 20 0 23 -22 27 -39
7z"/>
<path d="M7140 2666 c0 -11 9 -16 26 -16 31 0 28 23 -4 28 -15 2 -22 -2 -22
-12z"/>
<path d="M7381 2637 c-13 -16 -5 -27 21 -27 11 0 18 7 18 20 0 23 -22 27 -39
7z"/>
<path d="M8100 2666 c0 -11 9 -16 26 -16 31 0 28 23 -4 28 -15 2 -22 -2 -22
-12z"/>
<path d="M2935 841 c-8 -26 4 -51 26 -51 15 0 19 7 19 35 0 28 -4 35 -19 35
-11 0 -22 -8 -26 -19z"/>
<path d="M4135 841 c-8 -26 4 -51 26 -51 15 0 19 7 19 35 0 28 -4 35 -19 35
-11 0 -22 -8 -26 -19z"/>
<path d="M4375 841 c-8 -26 4 -51 26 -51 15 0 19 7 19 35 0 28 -4 35 -19 35
-11 0 -22 -8 -26 -19z"/>
<path d="M5455 841 c-8 -26 4 -51 26 -51 15 0 19 7 19 35 0 28 -4 35 -19 35
-11 0 -22 -8 -26 -19z"/>
<path d="M1627 864 c-16 -16 -7 -44 14 -44 15 0 20 5 17 22 -3 22 -19 33 -31
22z"/>
<path d="M6787 864 c-16 -16 -7 -44 14 -44 15 0 20 5 17 22 -3 22 -19 33 -31
22z"/>
<path d="M1022 818 c-8 -8 -8 -15 -1 -24 14 -17 39 -6 39 17 0 21 -20 25 -38
7z"/>
<path d="M1867 854 c-4 -4 -7 -20 -7 -36 0 -25 4 -29 23 -26 17 2 22 10 22 33
0 29 -22 45 -38 29z"/>
<path d="M2338 843 c-8 -34 2 -54 25 -51 31 4 32 62 1 66 -14 2 -23 -3 -26
-15z"/>
<path d="M2818 843 c-8 -34 2 -54 25 -51 31 4 32 62 1 66 -14 2 -23 -3 -26
-15z"/>
<path d="M3073 863 c-23 -8 -14 -33 12 -33 14 0 25 4 25 9 0 14 -24 29 -37 24z"/>
<path d="M3673 863 c-23 -8 -14 -33 12 -33 14 0 25 4 25 9 0 14 -24 29 -37 24z"/>
<path d="M4018 843 c-8 -34 2 -54 25 -51 31 4 32 62 1 66 -14 2 -23 -3 -26
-15z"/>
<path d="M4273 863 c-23 -8 -14 -33 12 -33 14 0 25 4 25 9 0 14 -24 29 -37 24z"/>
<path d="M4738 843 c-8 -34 2 -54 25 -51 31 4 32 62 1 66 -14 2 -23 -3 -26
-15z"/>
<path d="M5217 816 c-7 -18 11 -36 29 -29 21 8 17 43 -5 43 -10 0 -21 -6 -24
-14z"/>
<path d="M6181 817 c-13 -16 -5 -27 21 -27 11 0 18 7 18 20 0 23 -22 27 -39 7z"/>
<path d="M307 594 c-4 -4 -7 -20 -7 -36 0 -25 4 -29 23 -26 17 2 22 10 22 33
0 29 -22 45 -38 29z"/>
<path d="M433 603 c-23 -8 -14 -33 12 -33 14 0 25 4 25 9 0 14 -24 29 -37 24z"/>
<path d="M793 603 c-23 -8 -14 -33 12 -33 14 0 25 4 25 9 0 14 -24 29 -37 24z"/>
<path d="M1873 603 c-23 -8 -14 -33 12 -33 14 0 25 4 25 9 0 14 -24 29 -37 24z"/>
<path d="M2107 594 c-4 -4 -7 -20 -7 -36 0 -25 4 -29 23 -26 17 2 22 10 22 33
0 29 -22 45 -38 29z"/>
<path d="M2222 558 c-8 -8 -8 -15 -1 -24 14 -17 39 -6 39 17 0 21 -20 25 -38
7z"/>
<path d="M3178 583 c-8 -34 2 -54 25 -51 31 4 32 62 1 66 -14 2 -23 -3 -26
-15z"/>
<path d="M3298 583 c-8 -34 2 -54 25 -51 31 4 32 62 1 66 -14 2 -23 -3 -26
-15z"/>
<path d="M4153 603 c-23 -8 -14 -33 12 -33 14 0 25 4 25 9 0 14 -24 29 -37 24z"/>
<path d="M4382 558 c-8 -8 -8 -15 -1 -24 14 -17 39 -6 39 17 0 21 -20 25 -38
7z"/>
<path d="M4633 603 c-23 -8 -14 -33 12 -33 14 0 25 4 25 9 0 14 -24 29 -37 24z"/>
</g>
</svg>
